<svg id="Layer_1" data-name="Layer 1" xmlns="http://www.w3.org/2000/svg" viewBox="0 0 20 20"><defs><style>.cls-1{fill:#84282a;}</style></defs><path class="cls-1" d="M17.48,8l-2-3.2a.84.84,0,0,0-.69-.39H5.58a1,1,0,0,0-.83.43L2.55,8a.83.83,0,0,0,0,1l6.78,8.85a.81.81,0,0,0,.64.32h0a.81.81,0,0,0,.65-.32L17.43,9A.83.83,0,0,0,17.48,8Zm-.88.19H14.32A.2.2,0,0,1,14.14,8L15,5.7a.2.2,0,0,1,.36,0l1.38,2.25A.21.21,0,0,1,16.6,8.23ZM11.12,5h3.31a.21.21,0,0,1,.19.28l-1,2.41a.2.2,0,0,1-.33.07L11,5.33A.2.2,0,0,1,11.12,5Zm1.45,3.24h-5a.2.2,0,0,1-.15-.34l2.4-2.62a.21.21,0,0,1,.29,0l2.56,2.62A.2.2,0,0,1,12.57,8.23Zm-6-.59L5.68,5.26A.2.2,0,0,1,5.87,5H8.93a.21.21,0,0,1,.15.34L6.9,7.71A.21.21,0,0,1,6.56,7.64ZM13.12,9l-2.93,7.4a.2.2,0,0,1-.37,0L7.08,9a.2.2,0,0,1,.19-.27h5.67A.2.2,0,0,1,13.12,9ZM5.25,5.66,6.1,8a.2.2,0,0,1-.19.27H3.45a.2.2,0,0,1-.16-.32L4.9,5.61A.2.2,0,0,1,5.25,5.66ZM3.5,8.77H6.26a.2.2,0,0,1,.19.13l2.59,7a.2.2,0,0,1-.35.19l-5.35-7A.2.2,0,0,1,3.5,8.77Zm7.55,7L13.76,8.9A.21.21,0,0,1,14,8.77h2.54a.2.2,0,0,1,.15.32L11.39,16A.2.2,0,0,1,11.05,15.76Z"/><path class="cls-1" d="M10,3.09a.27.27,0,0,0,.27-.27v-.7a.27.27,0,1,0-.54,0v.7A.27.27,0,0,0,10,3.09Z"/><path class="cls-1" d="M12.46,3a.27.27,0,0,0,.19-.08l.49-.49a.28.28,0,0,0,0-.39.27.27,0,0,0-.38,0h0l-.49.49a.28.28,0,0,0,.19.47Z"/><path class="cls-1" d="M7.35,2.91a.27.27,0,0,0,.39,0,.29.29,0,0,0,0-.39L7.25,2a.28.28,0,0,0-.39,0,.26.26,0,0,0,0,.38h0Z"/></svg>