<svg width="21" height="20" viewBox="0 0 21 20" fill="none" xmlns="http://www.w3.org/2000/svg">
<path d="M2.26465 15.8333V7.5C2.26465 7.05797 2.44024 6.63405 2.7528 6.32149C3.06536 6.00893 3.48929 5.83333 3.93132 5.83333H4.34798C4.60672 5.83333 4.86191 5.77309 5.09334 5.65738C5.32476 5.54167 5.52607 5.37366 5.68131 5.16667L7.53131 2.7C7.57789 2.6379 7.63828 2.5875 7.70771 2.55279C7.77714 2.51807 7.85369 2.5 7.93131 2.5H13.2646C13.3423 2.5 13.4188 2.51807 13.4883 2.55279C13.5577 2.5875 13.6181 2.6379 13.6646 2.7L15.5146 5.16667C15.6699 5.37366 15.8712 5.54167 16.1026 5.65738C16.3341 5.77309 16.5892 5.83333 16.848 5.83333H17.2646C17.7067 5.83333 18.1306 6.00893 18.4432 6.32149C18.7557 6.63405 18.9313 7.05797 18.9313 7.5V15.8333C18.9313 16.2754 18.7557 16.6993 18.4432 17.0118C18.1306 17.3244 17.7067 17.5 17.2646 17.5H3.93132C3.48929 17.5 3.06536 17.3244 2.7528 17.0118C2.44024 16.6993 2.26465 16.2754 2.26465 15.8333Z" fill="#954648" stroke="#954648" stroke-linecap="round" stroke-linejoin="round"/>
<path d="M10.598 14.1667C11.482 14.1667 12.3299 13.8155 12.955 13.1904C13.5801 12.5652 13.9313 11.7174 13.9313 10.8333C13.9313 9.94928 13.5801 9.10143 12.955 8.47631C12.3299 7.85119 11.482 7.5 10.598 7.5C9.71393 7.5 8.86608 7.85119 8.24096 8.47631C7.61584 9.10143 7.26465 9.94928 7.26465 10.8333C7.26465 11.7174 7.61584 12.5652 8.24096 13.1904C8.86608 13.8155 9.71393 14.1667 10.598 14.1667Z" fill="#F2E7E9"/>
</svg>
