<?xml version="1.0" encoding="UTF-8"?>
<svg id="Layer_2" data-name="Layer 2" width="66" height="48" xmlns="http://www.w3.org/2000/svg" viewBox="0 0 37.26 47.06">
  <defs>
    <style>
      .cls-1 {
        fill: none;
        stroke: #832829;
        stroke-linecap: round;
        stroke-linejoin: round;
      }
    </style>
  </defs>
  <g id="Layer_1-2" data-name="Layer 1">
    <g>
      <g>
        <g>
          <circle class="cls-1" cx="25.69" cy="35.36" r="7.08"/>
          <path class="cls-1" d="m29.53,24.19c0,2.12-1.72,3.84-3.84,3.84s-3.84-1.72-3.84-3.84,1.72-3.84,3.84-3.84,3.84,1.72,3.84,3.84Z"/>
          <circle class="cls-1" cx="25.69" cy="18.15" r="1.95"/>
          <path class="cls-1" d="m21.22,4.97c0-2.47,2-4.47,4.47-4.47s4.47,2,4.47,4.47-2,4.47-4.47,4.47v3.15"/>
          <path class="cls-1" d="m21.22,35.36c0-1.85,1.13-3.44,2.73-4.12"/>
          <line class="cls-1" x1="25.69" y1="14.44" x2="25.69" y2="14.44"/>
        </g>
        <g>
          <circle class="cls-1" cx="8.05" cy="39.48" r="7.08" transform="translate(-32.21 41.11) rotate(-80.81)"/>
          <path class="cls-1" d="m11.88,28.3c0,2.12-1.72,3.84-3.84,3.84s-3.84-1.72-3.84-3.84,1.72-3.84,3.84-3.84,3.84,1.72,3.84,3.84Z"/>
          <circle class="cls-1" cx="8.05" cy="22.26" r="1.95"/>
          <path class="cls-1" d="m3.57,9.09c0-2.47,2-4.47,4.47-4.47s4.47,2,4.47,4.47-2,4.47-4.47,4.47v3.15"/>
          <path class="cls-1" d="m3.57,39.48c0-1.85,1.13-3.44,2.73-4.12"/>
          <line class="cls-1" x1="8.05" y1="18.55" x2="8.05" y2="18.55"/>
        </g>
      </g>
      <path class="cls-1" d="m36.76,25.87c-1.36.22-1.54.4-1.76,1.76-.22-1.36-.4-1.54-1.76-1.76,1.36-.22,1.54-.4,1.76-1.76.22,1.36.4,1.54,1.76,1.76Z"/>
      <path class="cls-1" d="m2.79,18.09c-.88.14-1,.26-1.14,1.14-.14-.88-.26-1-1.14-1.14.88-.14,1-.26,1.14-1.14.14.88.26,1,1.14,1.14Z"/>
    </g>
    <g>
      <g>
        <g>
          <circle class="cls-1" cx="25.69" cy="35.36" r="7.08"/>
          <path class="cls-1" d="m29.53,24.19c0,2.12-1.72,3.84-3.84,3.84s-3.84-1.72-3.84-3.84,1.72-3.84,3.84-3.84,3.84,1.72,3.84,3.84Z"/>
          <circle class="cls-1" cx="25.69" cy="18.15" r="1.95"/>
          <path class="cls-1" d="m21.22,4.97c0-2.47,2-4.47,4.47-4.47s4.47,2,4.47,4.47-2,4.47-4.47,4.47v3.15"/>
          <path class="cls-1" d="m21.22,35.36c0-1.85,1.13-3.44,2.73-4.12"/>
          <line class="cls-1" x1="25.69" y1="14.44" x2="25.69" y2="14.44"/>
        </g>
        <g>
          <circle class="cls-1" cx="8.05" cy="39.48" r="7.08" transform="translate(-32.21 41.11) rotate(-80.81)"/>
          <path class="cls-1" d="m11.88,28.3c0,2.12-1.72,3.84-3.84,3.84s-3.84-1.72-3.84-3.84,1.72-3.84,3.84-3.84,3.84,1.72,3.84,3.84Z"/>
          <circle class="cls-1" cx="8.05" cy="22.26" r="1.95"/>
          <path class="cls-1" d="m3.57,9.09c0-2.47,2-4.47,4.47-4.47s4.47,2,4.47,4.47-2,4.47-4.47,4.47v3.15"/>
          <path class="cls-1" d="m3.57,39.48c0-1.85,1.13-3.44,2.73-4.12"/>
          <line class="cls-1" x1="8.05" y1="18.55" x2="8.05" y2="18.55"/>
        </g>
      </g>
      <path class="cls-1" d="m36.76,25.87c-1.36.22-1.54.4-1.76,1.76-.22-1.36-.4-1.54-1.76-1.76,1.36-.22,1.54-.4,1.76-1.76.22,1.36.4,1.54,1.76,1.76Z"/>
      <path class="cls-1" d="m2.79,18.09c-.88.14-1,.26-1.14,1.14-.14-.88-.26-1-1.14-1.14.88-.14,1-.26,1.14-1.14.14.88.26,1,1.14,1.14Z"/>
    </g>
  </g>
</svg>