<svg width="21" height="20" viewBox="0 0 21 20" fill="none" xmlns="http://www.w3.org/2000/svg">
<path d="M8.08306 2.15553C9.17298 0.989362 11.0223 0.989362 12.1123 2.15553C12.6559 2.73717 13.4243 3.05547 14.22 3.02858C15.8153 2.97467 17.123 4.28236 17.0691 5.87766C17.0422 6.67333 17.3605 7.44179 17.9421 7.9854C19.1083 9.07532 19.1083 10.9247 17.9421 12.0146C17.3605 12.5582 17.0422 13.3267 17.0691 14.1223C17.123 15.7176 15.8153 17.0253 14.22 16.9714C13.4243 16.9445 12.6559 17.2628 12.1123 17.8445C11.0223 19.0106 9.17298 19.0106 8.08306 17.8445C7.53945 17.2628 6.77098 16.9445 5.97532 16.9714C4.38002 17.0253 3.07233 15.7176 3.12624 14.1223C3.15313 13.3267 2.83482 12.5582 2.25319 12.0146C1.08702 10.9247 1.08702 9.07532 2.25319 7.9854C2.83482 7.44179 3.15313 6.67333 3.12624 5.87766C3.07233 4.28236 4.38002 2.97467 5.97532 3.02858C6.77098 3.05547 7.53945 2.73717 8.08306 2.15553Z" fill="#BD7F2A"/>
<path d="M7.56445 12.4696L12.8672 7.16688" stroke="white" stroke-linecap="round" stroke-linejoin="round"/>
<circle cx="8.00586" cy="7.6084" r="1.24986" transform="rotate(-45 8.00586 7.6084)" fill="white"/>
<circle cx="12.4316" cy="12.0264" r="1.24986" transform="rotate(-45 12.4316 12.0264)" fill="white"/>
</svg>
